<svg xmlns="http://www.w3.org/2000/svg" viewBox="0 0 64 64" fill="none">
  <defs>
    <linearGradient id="bg" x1="8" y1="4" x2="56" y2="60" gradientUnits="userSpaceOnUse"><stop stop-color="#1D5144"/><stop offset="1" stop-color="#0B2822"/></linearGradient>
    <linearGradient id="gold" x1="20" y1="36" x2="46" y2="18" gradientUnits="userSpaceOnUse"><stop stop-color="#C99B45"/><stop offset="1" stop-color="#F1D28A"/></linearGradient>
  </defs>
  <rect x="2" y="2" width="60" height="60" rx="17" fill="url(#bg)"/>
  <path d="M12 11L25 17L32 10L39 17L52 11L48 37L40 47L32 55L24 47L16 37L12 11Z" fill="#F5EEDC"/>
  <path d="M19 30L28.2 24L25.4 35L18.5 36.8L19 30ZM45 30L35.8 24L38.6 35L45.5 36.8L45 30Z" fill="#12352D"/>
  <path d="M26 42L32 38L38 42L32 49L26 42Z" fill="#12352D"/>
  <path d="M20.5 34.5L27.5 29L33 32.5L43.5 22" stroke="url(#gold)" stroke-width="3.2" stroke-linecap="round" stroke-linejoin="round"/>
  <path d="M38.5 22H43.5V27" stroke="#F1D28A" stroke-width="3.2" stroke-linecap="round" stroke-linejoin="round"/>
</svg>
